# xmcd
#
# Track frame offsets:
#	150
#	16239
#	34445
#	53436
#	69810
#	87961
#	104384
#	120374
#	136637
#	150276
#	166365
#	184571
#	203562
#	219936
#	238087
#	254510
#	270500
#	286763
#
# Disc length: 4005 seconds
#
# Revision: 1
# Processed by: cddbd v1.5.2PL0 Copyright (c) Steve Scherf et al.
# Submitted via: audiograbber 1.83.01
#
DISCID=df0fa312
DTITLE=Various Artist - Country 21003-02
DYEAR=2010
DGENRE=Country
TTITLE0=Brad Paisley - American Saturday Night
TTITLE1=Keith Urban - Til Summer Comes Around
TTITLE2=Lee Ann Womack - There Is A God
TTITLE3=Clay Walker - She Won't Be Lonely Long
TTITLE4=Montgomery Gentry - Oughta Be More Songs About That
TTITLE5=Fast Ryde - Make it Rain
TTITLE6=Anna Garrott - Two More Bottles Of Wine
TTITLE7=David St. Romain - That's Love
TTITLE8=Patty Loveless - Blue Memories
TTITLE9=Brad Paisley - American Saturday Night - vocal
TTITLE10=Keith Urban - Til Summer Comes Around - vocal
TTITLE11=Lee Ann Womack - There Is A God - vocal
TTITLE12=Clay Walker - She Won't Be Lonely Long - vocal
TTITLE13=Montgomery Gentry - Oughta Be More Songs About That - vocal
TTITLE14=Fast Ryde - Make It Rain - vocal
TTITLE15=Anna Garrott - Two More Bottles Of Wine - vocal
TTITLE16=David St. Romain - That's Love - vocal
TTITLE17=Patty Loveless - Blue Memories - vocal
EXTD=
EXTT0=
EXTT1=
EXTT2=
EXTT3=
EXTT4=
EXTT5=
EXTT6=
EXTT7=
EXTT8=
EXTT9=
EXTT10=
EXTT11=
EXTT12=
EXTT13=
EXTT14=
EXTT15=
EXTT16=
EXTT17=
PLAYORDER=
